<svg width="288.524780" height="99.000000" viewBox="0 0 288.525 99" fill="none" xmlns="http://www.w3.org/2000/svg" xmlns:xlink="http://www.w3.org/1999/xlink">
	<desc>
			Created with Pixso.
	</desc>
	<defs>
		<clipPath id="clip2_4">
			<rect id="MAIN-LOGO" width="288.524780" height="99.000000" fill="white"/>
		</clipPath>
		<linearGradient id="paint_linear_2_31_0" x1="17.015913" y1="41.818981" x2="16.348705" y2="49.222015" gradientUnits="userSpaceOnUse">
			<stop stop-color="#0E0E0E"/>
			<stop offset="1.000000" stop-color="#0D0D0D"/>
		</linearGradient>
		<linearGradient id="paint_linear_2_32_0" x1="88.762360" y1="53.999996" x2="98.762360" y2="55.000000" gradientUnits="userSpaceOnUse">
			<stop stop-color="#A2A2A2"/>
			<stop offset="1.000000" stop-color="#B4B3B3"/>
		</linearGradient>
		<linearGradient id="paint_linear_2_28_0" x1="11.729691" y1="42.294487" x2="98.291779" y2="55.711662" gradientUnits="userSpaceOnUse">
			<stop stop-color="#000000"/>
			<stop offset="1.000000" stop-color="#B4B4B4"/>
		</linearGradient>
	</defs>
	<g clip-path="url(#clip2_4)">
		<path id="直线 1" d="M33.7624 65.7271L15.2624 78.7269L22.2624 62.2269" stroke="#000000" stroke-width="4.000000"/>
		<path id="直线 1" d="M75 35.3567L93.5001 22.3569L86.5 38.8569" stroke="#000000" stroke-width="4.000000"/>
		<ellipse id="椭圆 1" cx="16.677948" cy="44.842560" rx="5.016716" ry="4.773786" transform="rotate(14.5039 16.6779 44.8426)" fill="url(#paint_linear_2_31_0)"/>
		<circle id="椭圆 2" cx="93.762360" cy="53.000000" r="5.000000" fill="url(#paint_linear_2_32_0)"/>
		<path id="path" d="M72.9778 36.6277L75.3572 59.7681L56.504 73.3983L35.2784 63.8832L32.9006 40.7453L51.7538 27.115L72.9778 36.6277ZM80.5319 62.0879L77.5739 33.3049L51.1706 21.4758L27.7236 38.4272L30.6798 67.2078L57.0848 79.0393L80.5319 62.0879Z" fill-rule="nonzero" fill="#000000"/>
		<path id="矢量 1" d="M16.7624 44.5C20.2624 30.8333 27.4624 9 38.2624 9C47.0801 9 51.6771 15.9525 53.2624 26C54.3597 32.9551 54.2397 40.9097 55.2624 49.5C56.0461 57.5334 56.7637 66.2936 58.7624 73C61.8639 83.4072 67.0128 90 72.2624 90C81.2624 90 91.2624 65.5 93.7624 53" stroke="url(#paint_linear_2_28_0)" stroke-width="10.000000"/>
		<path id="多边形 1" d="M56.5 73.5L35 63.5L31 67.5L57.5 79.5L80.5 62L75.5 59.5L56.5 73.5Z" fill-rule="evenodd" fill="#000000"/>
		<circle id="椭圆 2" cx="93.500000" cy="53.500000" r="2.500000" fill="#FFFFFF"/>
		<path id="And" d="M185.043 35.3984L187.387 41.5859Q187.598 42.1367 187.727 42.4297Q187.797 42.6055 188.09 42.7168Q188.383 42.8281 188.523 42.8281Q188.57 42.8281 188.57 43.0508Q188.57 43.0977 188.547 43.168Q187.375 43.1094 187.258 43.1094Q187.246 43.1094 185.898 43.168Q185.852 43.1211 185.857 42.9746Q185.863 42.8281 185.91 42.8281Q186.051 42.8281 186.262 42.7695Q186.473 42.7109 186.508 42.6172Q186.531 42.5234 186.531 42.4297Q186.531 42.2773 186.49 42.0723Q186.449 41.8672 186.414 41.75L186.367 41.6211L185.887 40.2969Q185.852 40.25 185.816 40.25Q185.359 40.2148 184.926 40.2148Q184.316 40.2148 183.438 40.2734L183.379 40.3086L182.875 41.5977Q182.676 42.1836 182.676 42.4062Q182.676 42.5703 182.77 42.6406Q182.875 42.7227 183.109 42.7754Q183.344 42.8281 183.449 42.8281Q183.484 42.8281 183.49 42.9688Q183.496 43.1094 183.473 43.168Q182.301 43.1094 182.266 43.1094Q182.031 43.1094 181.855 43.1211Q181.68 43.1328 181.463 43.1445Q181.246 43.1562 181.047 43.168Q181 43.1211 181 42.9922Q181 42.8281 181.047 42.8281Q181.188 42.8281 181.41 42.7695Q181.633 42.7109 181.715 42.6055Q181.961 42.2891 182.266 41.5039L184.305 36.2656Q184.328 36.207 184.369 36.0781Q184.41 35.9492 184.434 35.8848Q184.457 35.8203 184.504 35.7207Q184.551 35.6211 184.586 35.5742Q184.621 35.5273 184.674 35.4688Q184.727 35.4102 184.791 35.3867Q184.855 35.3633 184.938 35.3633L185.043 35.3984ZM183.684 39.6289Q184.293 39.6523 184.516 39.6523Q185.031 39.6523 185.582 39.6172L185.617 39.5586L184.668 36.9688L183.66 39.582Q183.66 39.6289 183.684 39.6289ZM192.555 38Q193.375 38 193.703 38.5859Q194.031 39.1719 194.031 40.4844L194.031 41.5508Q194.031 42.2305 194.125 42.5938Q194.148 42.6758 194.43 42.752Q194.711 42.8281 194.828 42.8281Q194.863 42.8281 194.875 42.9688Q194.887 43.1094 194.863 43.168Q193.691 43.1094 193.609 43.1094Q193.586 43.1094 192.379 43.168Q192.332 43.1211 192.332 42.9746Q192.332 42.8281 192.379 42.8281Q192.52 42.8281 192.771 42.752Q193.023 42.6758 193.047 42.5938Q193.129 42.2539 193.129 41.7734L193.129 40.6016Q193.129 39.5117 192.848 39.1133Q192.566 38.7148 191.934 38.7148Q191.559 38.7148 191.213 38.9902Q190.867 39.2656 190.867 39.4883L190.867 41.5508Q190.867 42.2305 190.961 42.5938Q190.984 42.6758 191.266 42.752Q191.547 42.8281 191.664 42.8281Q191.699 42.8281 191.711 42.9688Q191.723 43.1094 191.699 43.168Q190.527 43.1094 190.445 43.1094Q190.375 43.1094 189.168 43.168Q189.121 43.1211 189.121 42.9746Q189.121 42.8281 189.168 42.8281Q189.309 42.8281 189.584 42.752Q189.859 42.6758 189.883 42.5938Q189.965 42.2539 189.965 41.7734L189.965 39.5586Q189.965 39.1016 189.801 38.9258Q189.684 38.7852 189.514 38.7324Q189.344 38.6797 189.232 38.6797Q189.121 38.6797 189.121 38.6562Q189.121 38.375 189.191 38.3633Q190.434 38.1758 190.809 38.0586Q190.82 38.0586 190.844 38.0527Q190.867 38.0469 190.867 38.0469Q190.914 38.0469 190.926 38.1465Q190.938 38.2461 190.926 38.293Q190.879 38.6211 190.879 38.7617Q190.879 38.8086 190.902 38.8086Q190.914 38.8086 190.938 38.7852Q191.207 38.5039 191.67 38.252Q192.133 38 192.555 38ZM198.051 38.4688Q197.371 38.4688 196.984 39.0781Q196.598 39.6875 196.598 40.4961Q196.598 41.3516 197.055 41.9785Q197.512 42.6055 198.32 42.6055Q198.719 42.6055 198.941 42.4238Q199.164 42.2422 199.164 41.9375L199.164 39.1484Q199.164 38.9023 198.9 38.6855Q198.637 38.4688 198.051 38.4688ZM198.203 37.9766Q198.707 37.9766 199.082 38.1758Q199.164 38.1758 199.164 37.9648L199.164 36.6992Q199.164 36.3008 199.094 35.9492Q199.035 35.7617 198.496 35.7617L198.391 35.7617Q198.32 35.7617 198.32 35.6328Q198.32 35.4453 198.391 35.4453Q198.742 35.4102 199.041 35.3516Q199.34 35.293 199.51 35.2344Q199.68 35.1758 199.797 35.123Q199.914 35.0703 199.973 35.0352L200.02 35L200.043 35Q200.09 35 200.137 35.0645Q200.184 35.1289 200.195 35.1875Q200.066 35.5625 200.066 36.207L200.066 41.4805Q200.066 42.043 200.137 42.3711Q200.16 42.4531 200.266 42.5Q200.371 42.5469 200.482 42.5586Q200.594 42.5703 200.699 42.5703L200.805 42.582Q200.84 42.5938 200.84 42.7227Q200.84 42.8984 200.77 42.8984Q200.594 42.9102 200.377 42.9453Q200.16 42.9805 199.967 43.0215Q199.773 43.0625 199.609 43.1035Q199.445 43.1445 199.34 43.1797L199.234 43.2031Q199.164 43.2031 199.164 43.0039L199.164 42.8633Q199.164 42.793 199.117 42.8164Q198.461 43.1797 197.875 43.1797Q196.902 43.1797 196.246 42.4883Q195.59 41.7969 195.59 40.8359Q195.59 39.6992 196.393 38.8379Q197.195 37.9766 198.203 37.9766Z" fill-rule="evenodd" fill="#4D4D4D"/>
		<path id="Factory" d="M208.402 27.1562Q209.281 27.1562 211.449 27.0781Q213.617 27 214.711 27Q214.789 27.5664 215.014 28.4941Q215.238 29.4219 215.277 29.6562Q215.18 29.7539 214.926 29.7539Q214.672 29.7539 214.652 29.6172Q214.359 28.543 213.832 28.2402Q213.305 27.9375 212.387 27.9375L211.078 27.9375Q209.398 27.9375 209.359 28.1914Q209.262 28.6602 209.262 29.832L209.262 33.0156Q209.262 33.1328 210.082 33.1328L211.117 33.1328Q212.426 33.1328 212.719 32.9473Q213.012 32.7617 213.227 31.8828Q213.246 31.7656 213.266 31.707Q213.285 31.5703 213.559 31.5703Q213.793 31.5703 213.891 31.668L213.891 35.457Q213.812 35.5352 213.578 35.5352Q213.324 35.5352 213.266 35.3789Q213.129 34.8516 213.031 34.5879Q212.934 34.3242 212.885 34.2754Q212.836 34.2266 212.719 34.1484Q212.465 33.9922 210.648 33.9922Q209.262 33.9922 209.262 34.168L209.262 37.2539Q209.262 38.3867 209.438 39.0703Q209.477 39.207 209.984 39.334Q210.492 39.4609 210.688 39.4609Q210.766 39.4609 210.766 39.7539Q210.766 39.9102 210.727 40.0273Q208.773 39.9297 208.461 39.9297Q208.363 39.9297 206.117 40.0273Q206.039 39.9492 206.039 39.7344Q206.039 39.4609 206.117 39.4609Q206.371 39.4609 206.869 39.3438Q207.367 39.2266 207.426 39.0703Q207.562 38.543 207.562 37.3125L207.562 29.793Q207.562 28.6406 207.426 28.1133Q207.367 27.957 206.85 27.8203Q206.332 27.6836 206.078 27.6836Q206 27.6836 206 27.4492Q206 27.1953 206.078 27.1172Q207.094 27.1562 208.402 27.1562ZM218.715 38.709Q219.047 38.9922 219.574 38.9922Q220.102 38.9922 220.59 38.6699Q221.078 38.3477 221.078 38.0156L221.078 36.0039Q220.922 36.082 220.316 36.2773Q219.711 36.4727 219.369 36.6191Q219.027 36.7656 218.705 37.1074Q218.383 37.4492 218.383 37.8984Q218.383 38.4258 218.715 38.709ZM220.551 31.4531Q221.625 31.4531 222.094 31.9707Q222.562 32.4883 222.562 33.6406L222.562 38.1523Q222.562 38.5625 222.777 38.8359Q222.992 39.1094 223.363 39.1094Q223.637 39.1094 224.047 38.8359Q224.125 38.8359 224.125 38.9922Q224.125 39.2461 224.027 39.4023Q223.227 40.0859 222.66 40.0859Q222.211 40.0859 221.801 39.7148Q221.391 39.3438 221.234 38.9336Q221.215 38.9336 221.088 39.0605Q220.961 39.1875 220.746 39.3535Q220.531 39.5195 220.248 39.6953Q219.965 39.8711 219.584 39.9883Q219.203 40.1055 218.812 40.1055Q217.914 40.1055 217.328 39.627Q216.742 39.1484 216.742 38.1914Q216.742 37.7617 216.957 37.3809Q217.172 37 217.465 36.7559Q217.758 36.5117 218.266 36.2578Q218.773 36.0039 219.135 35.877Q219.496 35.75 220.082 35.5547Q220.668 35.3594 220.902 35.2617Q221.078 35.2031 221.078 34.9688L221.078 33.5039Q221.078 32.8789 220.688 32.5371Q220.297 32.1953 219.75 32.1953Q219.164 32.1953 218.773 32.5957Q218.383 32.9961 218.383 33.6406Q218.383 34.3242 217.582 34.3242Q217.035 34.3242 216.82 33.9531Q216.82 33.1133 218.051 32.2832Q219.281 31.4531 220.551 31.4531ZM228.754 31.4531Q230.902 31.4531 231.723 32.4492Q231.723 33.7578 231 33.7578Q230.668 33.7578 230.492 33.6113Q230.316 33.4648 230.043 33.0742Q229.438 32.1758 228.598 32.1758Q227.797 32.1758 227.143 32.9375Q226.488 33.6992 226.488 35.2031Q226.488 36.7656 227.26 37.8008Q228.031 38.8359 229.398 38.8359Q229.809 38.8359 230.18 38.7578Q230.551 38.6797 230.814 38.5723Q231.078 38.4648 231.264 38.3574Q231.449 38.25 231.586 38.1523L231.723 38.0547Q231.84 38.0547 231.84 38.3086Q231.84 38.4648 231.723 38.6602Q231.332 39.207 230.57 39.6465Q229.809 40.0859 228.91 40.0859Q227.289 40.0859 226.127 38.8652Q224.965 37.6445 224.965 35.8867Q224.965 34.0898 225.941 32.7715Q226.918 31.4531 228.754 31.4531ZM233.715 32.6641L232.582 32.6641Q232.484 32.6641 232.484 32.2539Q232.484 32.1367 232.504 32.1172Q233.07 31.8633 233.734 31.082Q233.949 30.8281 234.154 30.5059Q234.359 30.1836 234.496 29.9492Q234.633 29.7148 234.633 29.6953Q235.219 29.6953 235.219 29.793L235.219 31.7266Q235.727 31.7266 236.762 31.7363Q237.797 31.7461 237.855 31.7461Q238.012 31.7461 238.012 31.9219Q238.012 32.2734 237.816 32.6641L235.219 32.6641L235.219 37.4492Q235.219 38.2305 235.619 38.6992Q236.02 39.168 236.664 39.168Q237.25 39.168 237.875 38.7969Q237.934 38.7578 238.051 38.9629Q238.168 39.168 238.148 39.1875Q237.855 39.5 237.25 39.8027Q236.645 40.1055 236 40.1055Q235.023 40.1055 234.369 39.4609Q233.715 38.8164 233.715 37.625L233.715 32.6641ZM243.031 32.1953Q241.996 32.1953 241.342 33.1426Q240.688 34.0898 240.688 35.457Q240.688 37.0586 241.518 38.2012Q242.348 39.3438 243.461 39.3438Q244.496 39.3438 245.16 38.3672Q245.824 37.3906 245.824 36.0234Q245.824 34.4414 244.984 33.3184Q244.145 32.1953 243.031 32.1953ZM243.246 31.4336Q245.004 31.4336 246.254 32.7031Q247.504 33.9727 247.504 35.75Q247.504 37.5469 246.283 38.8262Q245.062 40.1055 243.285 40.1055Q241.508 40.1055 240.258 38.8262Q239.008 37.5469 239.008 35.75Q239.008 33.9336 240.219 32.6836Q241.43 31.4336 243.246 31.4336ZM253.969 31.4336Q255.121 31.4336 255.492 32Q255.492 32.6836 255.277 32.9961Q255.062 33.3086 254.75 33.3086Q254.398 33.3086 254.105 32.9766Q253.812 32.6445 253.305 32.6445Q252.699 32.6445 252.25 33.2109Q251.801 33.7773 251.801 34.4023L251.801 37.332Q251.801 38.4648 251.957 39.0703Q251.996 39.207 252.475 39.334Q252.953 39.4609 253.148 39.4609Q253.207 39.4609 253.227 39.6953Q253.246 39.9297 253.207 40.0273Q251.254 39.9297 251.098 39.9297Q250.98 39.9297 248.969 40.0273Q248.891 39.9492 248.891 39.7051Q248.891 39.4609 248.969 39.4609Q249.203 39.4609 249.662 39.334Q250.121 39.207 250.16 39.0703Q250.297 38.5039 250.297 37.7031L250.297 34.0117Q250.297 33.25 250.023 32.957Q249.828 32.7227 249.545 32.6348Q249.262 32.5469 249.076 32.5469Q248.891 32.5469 248.891 32.5078Q248.891 32.0391 249.008 32.0195Q251.078 31.707 251.703 31.5117Q251.723 31.5117 251.762 31.502Q251.801 31.4922 251.801 31.4922Q251.879 31.4922 251.898 31.6582Q251.918 31.8242 251.898 31.9023L251.781 32.8789Q252.133 32.3516 252.748 31.8926Q253.363 31.4336 253.969 31.4336ZM257.895 31.5898Q258.227 31.5898 258.51 31.5703Q258.793 31.5508 259.154 31.5312Q259.516 31.5117 259.789 31.4922Q259.828 31.6094 259.828 31.7852Q259.828 32.0586 259.75 32.0586Q259.594 32.0586 259.232 32.1953Q258.871 32.332 258.832 32.4688L258.832 32.5078Q258.832 32.8594 260.922 37.6055L262.406 33.3281Q262.543 32.918 262.543 32.7227Q262.543 32.4297 262.24 32.2441Q261.938 32.0586 261.43 32.0586Q261.352 32.0586 261.352 31.8047Q261.352 31.5703 261.43 31.4922Q261.684 31.5117 262.191 31.5508Q262.699 31.5898 263.168 31.5898Q263.598 31.5898 264.105 31.5508Q264.613 31.5117 264.867 31.4922Q264.906 31.6094 264.906 31.7852Q264.906 32.0586 264.828 32.0586Q264.574 32.0586 264.135 32.2344Q263.695 32.4102 263.559 32.8008L260.062 42.2344Q259.613 43.4453 259.047 43.9238Q258.48 44.4023 258.012 44.4023Q257.602 44.4023 257.406 44.1484Q257.211 43.8945 257.211 43.6406Q257.211 43.2109 257.484 43.0156Q259.105 43.0156 259.633 41.3359Q259.73 41.043 259.867 40.6328Q260.004 40.2227 260.082 39.9688L257.289 33.1328Q257.074 32.6641 256.898 32.4688Q256.723 32.293 256.361 32.1758Q256 32.0586 255.785 32.0586Q255.707 32.0586 255.707 31.8047Q255.707 31.5703 255.785 31.4922Q257.797 31.5898 257.895 31.5898Z" fill-rule="evenodd" fill="#000000"/>
		<path id="GROUP" d="M183.216 54.7173Q183.223 54.9822 183.204 55.2283Q183.187 55.4727 183.127 55.7034Q183.069 55.9341 182.959 56.1511Q182.852 56.3682 182.669 56.5784Q182.305 56.9988 181.787 57.2295Q181.269 57.4602 180.716 57.4602Q180.157 57.4602 179.663 57.2432Q179.169 57.0261 178.802 56.6587Q178.434 56.2913 178.217 55.7991Q178 55.3052 178 54.7446Q178 54.1772 178.217 53.6782Q178.434 53.1775 178.805 52.8066Q179.176 52.4341 179.68 52.217Q180.184 52 180.751 52Q181.45 52 182.008 52.2991Q182.565 52.5964 182.983 53.1416L182.558 53.5398Q182.221 53.0715 181.777 52.8101Q181.333 52.5469 180.745 52.5469Q180.288 52.5469 179.897 52.7263Q179.506 52.9041 179.215 53.2048Q178.925 53.5056 178.755 53.9055Q178.588 54.3037 178.588 54.7515Q178.588 55.1719 178.749 55.5564Q178.911 55.9409 179.205 56.2434Q179.499 56.5374 179.89 56.7271Q180.281 56.915 180.702 56.915Q181.045 56.915 181.38 56.7954Q181.717 56.6758 181.985 56.4553Q182.255 56.2349 182.419 55.9341Q182.585 55.6333 182.585 55.2625L181.016 55.2625L181.016 54.7173L183.216 54.7173ZM186.136 57.3696L185.548 57.3696L185.548 52.0923L186.312 52.0923Q186.689 52.0923 187.034 52.1521Q187.381 52.2102 187.651 52.3726Q187.921 52.5332 188.082 52.8169Q188.243 53.0989 188.243 53.5483Q188.243 54.1636 187.889 54.5566Q187.537 54.948 186.92 55.0044L188.6 57.3696L187.879 57.3696L186.282 55.0522L186.136 55.0522L186.136 57.3696ZM186.136 54.5344L186.318 54.5344Q186.57 54.5344 186.807 54.5037Q187.046 54.4712 187.234 54.3704Q187.424 54.2678 187.539 54.0833Q187.655 53.897 187.655 53.5894Q187.655 53.2681 187.542 53.075Q187.431 52.8818 187.245 52.7878Q187.06 52.6938 186.817 52.6665Q186.576 52.6375 186.312 52.6375L186.136 52.6375L186.136 54.5344ZM193.326 52.5469Q192.872 52.5469 192.475 52.7195Q192.081 52.8904 191.79 53.1877Q191.5 53.4851 191.332 53.885Q191.165 54.2832 191.165 54.731Q191.165 55.1787 191.332 55.5752Q191.5 55.97 191.794 56.2673Q192.087 56.5647 192.482 56.7407Q192.879 56.915 193.326 56.915Q193.776 56.915 194.171 56.7407Q194.565 56.5647 194.859 56.2673Q195.153 55.97 195.321 55.5752Q195.49 55.1787 195.49 54.731Q195.49 54.2832 195.321 53.885Q195.153 53.4851 194.863 53.1877Q194.572 52.8904 194.178 52.7195Q193.783 52.5469 193.326 52.5469ZM193.326 52Q193.894 52 194.395 52.2136Q194.895 52.4272 195.27 52.8032Q195.644 53.1775 195.861 53.6748Q196.078 54.1704 196.078 54.7378Q196.078 55.3052 195.861 55.8025Q195.644 56.2981 195.27 56.6655Q194.895 57.033 194.395 57.2466Q193.894 57.4602 193.326 57.4602Q192.761 57.4602 192.26 57.2466Q191.759 57.033 191.385 56.6655Q191.011 56.2981 190.794 55.8025Q190.577 55.3052 190.577 54.7378Q190.577 54.1704 190.794 53.6748Q191.011 53.1775 191.385 52.8032Q191.759 52.4272 192.26 52.2136Q192.761 52 193.326 52ZM198.95 55.2351Q198.95 55.3821 198.95 55.5359Q198.95 55.6897 198.97 55.8435Q198.993 55.9973 199.04 56.1409Q199.09 56.2844 199.181 56.4109Q199.357 56.6553 199.654 56.7852Q199.951 56.915 200.245 56.915Q200.532 56.915 200.816 56.792Q201.1 56.6689 201.281 56.4451Q201.387 56.3203 201.438 56.1733Q201.491 56.0264 201.515 55.8691Q201.541 55.7102 201.541 55.5496Q201.541 55.3889 201.541 55.2351L201.541 52.0923L202.129 52.0923L202.129 55.3958Q202.129 55.6128 202.113 55.8059Q202.099 55.9973 202.053 56.1802Q202.009 56.3613 201.915 56.5305Q201.821 56.698 201.665 56.8586Q201.394 57.1526 201.018 57.3064Q200.643 57.4602 200.245 57.4602Q199.868 57.4602 199.507 57.3252Q199.146 57.1885 198.88 56.9219Q198.705 56.7544 198.603 56.5835Q198.502 56.4109 198.449 56.2229Q198.398 56.0332 198.379 55.8264Q198.362 55.6196 198.362 55.3958L198.362 52.0923L198.95 52.0923L198.95 55.2351ZM205.259 54.5139L205.652 54.5139Q205.896 54.5139 206.113 54.4729Q206.33 54.4302 206.494 54.3225Q206.66 54.2131 206.757 54.032Q206.855 53.8491 206.855 53.562Q206.855 53.239 206.735 53.0544Q206.617 52.8682 206.421 52.7776Q206.226 52.687 205.98 52.6631Q205.735 52.6375 205.476 52.6375L205.259 52.6375L205.259 54.5139ZM205.259 57.3696L204.671 57.3696L204.671 52.0923L205.539 52.0923Q205.882 52.0923 206.221 52.135Q206.561 52.176 206.848 52.3708Q207.142 52.5742 207.292 52.8972Q207.443 53.2185 207.443 53.5757Q207.443 53.897 207.313 54.2029Q207.185 54.5071 206.938 54.7104Q206.674 54.9343 206.344 54.9976Q206.016 55.0591 205.686 55.0591L205.259 55.0591L205.259 57.3696Z" fill-rule="evenodd" fill="#000000"/>
		<path id="Project" d="M122.422 27.0781Q123.008 27.0781 123.809 27.0391Q124.609 27 125.176 27Q125.82 27 126.475 27.1953Q127.129 27.3906 127.744 27.7812Q128.359 28.1719 128.75 28.8945Q129.141 29.6172 129.141 30.5742Q129.141 31.1406 128.896 31.7949Q128.652 32.4492 128.184 33.0645Q127.715 33.6797 126.924 34.0801Q126.133 34.4805 125.156 34.4805Q124.062 34.4805 123.652 33.9336Q123.535 33.7969 123.594 33.4844Q123.613 33.4062 123.652 33.4258Q124.238 33.6406 124.961 33.6406Q125.938 33.6406 126.641 32.8203Q127.344 32 127.344 30.8672Q127.344 29.4805 126.738 28.6699Q126.133 27.8594 124.863 27.8594Q123.984 27.8594 123.496 27.9961Q123.398 28.0156 123.359 28.1426Q123.32 28.2695 123.291 28.7383Q123.262 29.207 123.262 30.1445L123.262 37.1172Q123.262 38.4258 123.418 38.8164Q123.516 39.0703 124.111 39.2266Q124.707 39.3828 124.961 39.3828Q125.039 39.3828 125.039 39.6562Q125.039 39.832 125 39.9492Q123.047 39.8516 122.461 39.8516L120.078 39.9492Q120.02 39.8906 120.02 39.5977Q120.02 39.3438 120.078 39.3438Q120.352 39.3438 120.84 39.2266Q121.328 39.1094 121.426 38.9336Q121.562 38.6992 121.562 37.0977L121.562 29.7148Q121.562 28.5625 121.426 28.0352Q121.367 27.8789 120.85 27.7422Q120.332 27.6055 120.078 27.6055Q120 27.6055 120 27.3711Q120 27.1172 120.078 27.0391L122.422 27.0781ZM135.586 31.3555Q136.738 31.3555 137.109 31.9219Q137.109 32.6055 136.895 32.918Q136.68 33.2305 136.367 33.2305Q136.016 33.2305 135.723 32.8984Q135.43 32.5664 134.922 32.5664Q134.316 32.5664 133.867 33.1328Q133.418 33.6992 133.418 34.3242L133.418 37.2539Q133.418 38.3867 133.574 38.9922Q133.613 39.1289 134.092 39.2559Q134.57 39.3828 134.766 39.3828Q134.824 39.3828 134.844 39.6172Q134.863 39.8516 134.824 39.9492Q132.871 39.8516 132.715 39.8516Q132.598 39.8516 130.586 39.9492Q130.508 39.8711 130.508 39.627Q130.508 39.3828 130.586 39.3828Q130.82 39.3828 131.279 39.2559Q131.738 39.1289 131.777 38.9922Q131.914 38.4258 131.914 37.625L131.914 33.9336Q131.914 33.1719 131.641 32.8789Q131.445 32.6445 131.162 32.5566Q130.879 32.4688 130.693 32.4688Q130.508 32.4688 130.508 32.4297Q130.508 31.9609 130.625 31.9414Q132.695 31.6289 133.32 31.4336Q133.34 31.4336 133.379 31.4238Q133.418 31.4141 133.418 31.4141Q133.496 31.4141 133.516 31.5801Q133.535 31.7461 133.516 31.8242L133.398 32.8008Q133.75 32.2734 134.365 31.8145Q134.98 31.3555 135.586 31.3555ZM142.031 32.1172Q140.996 32.1172 140.342 33.0645Q139.688 34.0117 139.688 35.3789Q139.688 36.9805 140.518 38.123Q141.348 39.2656 142.461 39.2656Q143.496 39.2656 144.16 38.2891Q144.824 37.3125 144.824 35.9453Q144.824 34.3633 143.984 33.2402Q143.145 32.1172 142.031 32.1172ZM142.246 31.3555Q144.004 31.3555 145.254 32.625Q146.504 33.8945 146.504 35.6719Q146.504 37.4688 145.283 38.748Q144.062 40.0273 142.285 40.0273Q140.508 40.0273 139.258 38.748Q138.008 37.4688 138.008 35.6719Q138.008 33.8555 139.219 32.6055Q140.43 31.3555 142.246 31.3555ZM148.906 33.9336Q148.906 33.1719 148.633 32.8789Q148.438 32.6445 148.154 32.5566Q147.871 32.4688 147.686 32.4688Q147.5 32.4688 147.5 32.4297Q147.5 31.9609 147.617 31.9414Q149.688 31.6289 150.312 31.4336Q150.332 31.4336 150.371 31.4238Q150.41 31.4141 150.41 31.4141Q150.488 31.4141 150.508 31.5801Q150.527 31.7461 150.508 31.8242Q150.41 32.6055 150.41 33.2305L150.41 38.5625Q150.41 41.043 149.648 42.2344Q149.16 42.9961 148.408 43.582Q147.656 44.168 147.031 44.4023Q146.855 44.2852 146.777 44.1094Q146.738 44.0117 146.777 43.9727L147.012 43.8555Q147.246 43.7383 147.549 43.4453Q147.852 43.1523 148.164 42.6641Q148.477 42.1758 148.691 41.2188Q148.906 40.2617 148.906 39.0117L148.906 33.9336ZM148.682 29.002Q148.398 28.7188 148.398 28.3086Q148.398 27.8984 148.682 27.6152Q148.965 27.332 149.375 27.332Q149.785 27.332 150.068 27.6152Q150.352 27.8984 150.352 28.3086Q150.352 28.7188 150.068 29.002Q149.785 29.2852 149.375 29.2852Q148.965 29.2852 148.682 29.002ZM156.289 32.0977Q155.273 32.0977 154.736 32.9668Q154.199 33.8359 154.199 34.4023Q154.199 34.5391 154.316 34.5391L158.125 34.5391Q158.223 34.5391 158.223 34.3438Q158.223 33.7188 157.695 32.9082Q157.168 32.0977 156.289 32.0977ZM156.484 31.375Q157.383 31.375 158.066 31.7168Q158.75 32.0586 159.111 32.5957Q159.473 33.1328 159.639 33.6895Q159.805 34.2461 159.805 34.793Q159.805 35.1836 159.688 35.2715Q159.57 35.3594 159.238 35.3594L154.316 35.3594Q154.16 35.3594 154.16 35.457Q154.16 36.6875 154.902 37.7227Q155.645 38.7578 157.051 38.7578Q157.461 38.7578 157.832 38.6797Q158.203 38.6016 158.467 38.4941Q158.73 38.3867 158.916 38.2793Q159.102 38.1719 159.238 38.0742L159.375 37.9766Q159.492 37.9766 159.492 38.2305Q159.492 38.3867 159.375 38.582Q158.984 39.1289 158.223 39.5684Q157.461 40.0078 156.562 40.0078Q154.941 40.0078 153.779 38.7871Q152.617 37.5664 152.617 35.8086Q152.617 33.7578 153.721 32.5664Q154.824 31.375 156.484 31.375ZM164.805 31.375Q166.953 31.375 167.773 32.3711Q167.773 33.6797 167.051 33.6797Q166.719 33.6797 166.543 33.5332Q166.367 33.3867 166.094 32.9961Q165.488 32.0977 164.648 32.0977Q163.848 32.0977 163.193 32.8594Q162.539 33.6211 162.539 35.125Q162.539 36.6875 163.311 37.7227Q164.082 38.7578 165.449 38.7578Q165.859 38.7578 166.23 38.6797Q166.602 38.6016 166.865 38.4941Q167.129 38.3867 167.314 38.2793Q167.5 38.1719 167.637 38.0742L167.773 37.9766Q167.891 37.9766 167.891 38.2305Q167.891 38.3867 167.773 38.582Q167.383 39.1289 166.621 39.5684Q165.859 40.0078 164.961 40.0078Q163.34 40.0078 162.178 38.7871Q161.016 37.5664 161.016 35.8086Q161.016 34.0117 161.992 32.6934Q162.969 31.375 164.805 31.375ZM169.766 32.5859L168.633 32.5859Q168.535 32.5859 168.535 32.1758Q168.535 32.0586 168.555 32.0391Q169.121 31.7852 169.785 31.0039Q170 30.75 170.205 30.4277Q170.41 30.1055 170.547 29.8711Q170.684 29.6367 170.684 29.6172Q171.27 29.6172 171.27 29.7148L171.27 31.6484Q171.777 31.6484 172.812 31.6582Q173.848 31.668 173.906 31.668Q174.062 31.668 174.062 31.8438Q174.062 32.1953 173.867 32.5859L171.27 32.5859L171.27 37.3711Q171.27 38.1523 171.67 38.6211Q172.07 39.0898 172.715 39.0898Q173.301 39.0898 173.926 38.7188Q173.984 38.6797 174.102 38.8848Q174.219 39.0898 174.199 39.1094Q173.906 39.4219 173.301 39.7246Q172.695 40.0273 172.051 40.0273Q171.074 40.0273 170.42 39.3828Q169.766 38.7383 169.766 37.5469L169.766 32.5859Z" fill-rule="evenodd" fill="#000000"/>
	</g>
</svg>
